<svg width="30" height="30" viewBox="0 0 16 16" xmlns="http://www.w3.org/2000/svg">
  <path d="M11.86 15.154L8 13.124l-3.86 2.03c-.726.387-1.59-.235-1.45-1.054l.737-4.3L.303 6.758C-.29 6.178.04 5.17.858 5.05l4.316-.626L7.104.512c.338-.682 1.46-.682 1.796 0l1.93 3.91 4.317.628c.818.12 1.148 1.126.555 1.706L12.576 9.8l.737 4.3c.14.823-.726 1.436-1.452 1.054zM8.468 11.11L11 12.44l-.484-2.82c-.056-.323.052-.654.287-.884l2.05-1.998-2.832-.41c-.324-.048-.605-.253-.75-.548L8 3.214 6.735 5.78c-.146.295-.427.5-.753.547l-2.83.41 2.05 2c.234.228.342.56.286.884l-.483 2.82 2.532-1.33c.292-.152.64-.152.932 0z" fill="#F7A81B" opacity=".5" />
</svg>
